<?xml version="1.0" encoding="utf-8" standalone="no"?>
<!DOCTYPE svg PUBLIC "-//W3C//DTD SVG 1.1//EN" "http://www.w3.org/Graphics/SVG/1.1/DTD/svg11.dtd">
<svg width="1000" height="600" version="1.1" xmlns:xlink="http://www.w3.org/1999/xlink" xmlns="http://www.w3.org/2000/svg">
  <defs>
    <clipPath id="clipPath1">
      <rect x="0" y="0" width="1000" height="600" />
    </clipPath>
  </defs>
  <g clip-path="url(#clipPath1)">
    <polyline points="51.062,262.6574 47.062,262.6574" style="fill:none;stroke:black;stroke-width:1" shape-rendering="crispEdges" />
    <polyline points="51.062,234.9542 47.062,234.9542" style="fill:none;stroke:black;stroke-width:1" shape-rendering="crispEdges" />
    <polyline points="51.062,221.1025 47.062,221.1025" style="fill:none;stroke:black;stroke-width:1" shape-rendering="crispEdges" />
    <polyline points="51.062,207.2509 47.062,207.2509" style="fill:none;stroke:black;stroke-width:1" shape-rendering="crispEdges" />
    <polyline points="51.062,193.3993 47.062,193.3993" style="fill:none;stroke:black;stroke-width:1" shape-rendering="crispEdges" />
    <polyline points="51.062,165.696 47.062,165.696" style="fill:none;stroke:black;stroke-width:1" shape-rendering="crispEdges" />
    <polyline points="51.062,151.8444 47.062,151.8444" style="fill:none;stroke:black;stroke-width:1" shape-rendering="crispEdges" />
    <polyline points="51.062,137.9928 47.062,137.9928" style="fill:none;stroke:black;stroke-width:1" shape-rendering="crispEdges" />
    <polyline points="51.062,124.1412 47.062,124.1412" style="fill:none;stroke:black;stroke-width:1" shape-rendering="crispEdges" />
    <polyline points="51.062,96.4379 47.062,96.4379" style="fill:none;stroke:black;stroke-width:1" shape-rendering="crispEdges" />
    <polyline points="51.062,82.5863 47.062,82.5863" style="fill:none;stroke:black;stroke-width:1" shape-rendering="crispEdges" />
    <polyline points="51.062,68.7347 47.062,68.7347" style="fill:none;stroke:black;stroke-width:1" shape-rendering="crispEdges" />
    <polyline points="51.062,54.8831 47.062,54.8831" style="fill:none;stroke:black;stroke-width:1" shape-rendering="crispEdges" />
    <polyline points="51.062,555.2143 47.062,555.2143" style="fill:none;stroke:black;stroke-width:1" shape-rendering="crispEdges" />
    <polyline points="51.062,542.0081 47.062,542.0081" style="fill:none;stroke:black;stroke-width:1" shape-rendering="crispEdges" />
    <polyline points="51.062,528.8019 47.062,528.8019" style="fill:none;stroke:black;stroke-width:1" shape-rendering="crispEdges" />
    <polyline points="51.062,515.5956 47.062,515.5956" style="fill:none;stroke:black;stroke-width:1" shape-rendering="crispEdges" />
    <polyline points="51.062,489.1832 47.062,489.1832" style="fill:none;stroke:black;stroke-width:1" shape-rendering="crispEdges" />
    <polyline points="51.062,475.977 47.062,475.977" style="fill:none;stroke:black;stroke-width:1" shape-rendering="crispEdges" />
    <polyline points="51.062,462.7707 47.062,462.7707" style="fill:none;stroke:black;stroke-width:1" shape-rendering="crispEdges" />
    <polyline points="51.062,449.5645 47.062,449.5645" style="fill:none;stroke:black;stroke-width:1" shape-rendering="crispEdges" />
    <polyline points="51.062,423.1521 47.062,423.1521" style="fill:none;stroke:black;stroke-width:1" shape-rendering="crispEdges" />
    <polyline points="51.062,409.9458 47.062,409.9458" style="fill:none;stroke:black;stroke-width:1" shape-rendering="crispEdges" />
    <polyline points="51.062,396.7396 47.062,396.7396" style="fill:none;stroke:black;stroke-width:1" shape-rendering="crispEdges" />
    <polyline points="51.062,383.5334 47.062,383.5334" style="fill:none;stroke:black;stroke-width:1" shape-rendering="crispEdges" />
    <polyline points="51.062,357.1209 47.062,357.1209" style="fill:none;stroke:black;stroke-width:1" shape-rendering="crispEdges" />
    <polyline points="51.062,343.9147 47.062,343.9147" style="fill:none;stroke:black;stroke-width:1" shape-rendering="crispEdges" />
    <polyline points="51.062,330.7085 47.062,330.7085" style="fill:none;stroke:black;stroke-width:1" shape-rendering="crispEdges" />
    <polyline points="181.506,556.894 181.506,560.894" style="fill:none;stroke:black;stroke-width:1" shape-rendering="crispEdges" />
    <polyline points="226.0641,556.894 226.0641,560.894" style="fill:none;stroke:black;stroke-width:1" shape-rendering="crispEdges" />
    <polyline points="243.7473,556.894 243.7473,560.894" style="fill:none;stroke:black;stroke-width:1" shape-rendering="crispEdges" />
    <polyline points="259.345,556.894 259.345,560.894" style="fill:none;stroke:black;stroke-width:1" shape-rendering="crispEdges" />
    <polyline points="486.4309,556.894 486.4309,560.894" style="fill:none;stroke:black;stroke-width:1" shape-rendering="crispEdges" />
    <polyline points="530.989,556.894 530.989,560.894" style="fill:none;stroke:black;stroke-width:1" shape-rendering="crispEdges" />
    <polyline points="548.6722,556.894 548.6722,560.894" style="fill:none;stroke:black;stroke-width:1" shape-rendering="crispEdges" />
    <polyline points="564.2699,556.894 564.2699,560.894" style="fill:none;stroke:black;stroke-width:1" shape-rendering="crispEdges" />
    <polyline points="791.3558,556.894 791.3558,560.894" style="fill:none;stroke:black;stroke-width:1" shape-rendering="crispEdges" />
    <polyline points="835.9139,556.894 835.9139,560.894" style="fill:none;stroke:black;stroke-width:1" shape-rendering="crispEdges" />
    <polyline points="853.5971,556.894 853.5971,560.894" style="fill:none;stroke:black;stroke-width:1" shape-rendering="crispEdges" />
    <polyline points="869.1947,556.894 869.1947,560.894" style="fill:none;stroke:black;stroke-width:1" shape-rendering="crispEdges" />
    <text dominant-baseline="middle" text-anchor="end" transform="translate(40.062,248.8058)" font-family="Segoe UI" font-size="12" font-weight="400" fill="black">-150</text>
    <text dominant-baseline="middle" text-anchor="end" transform="translate(40.062,179.5477)" font-family="Segoe UI" font-size="12" font-weight="400" fill="black">-100</text>
    <text dominant-baseline="middle" text-anchor="end" transform="translate(40.062,110.2896)" font-family="Segoe UI" font-size="12" font-weight="400" fill="black">-50</text>
    <text dominant-baseline="middle" text-anchor="end" transform="translate(40.062,41.0314)" font-family="Segoe UI" font-size="12" font-weight="400" fill="black">0</text>
    <polyline points="51.062,248.8058 979.49,248.8058" style="fill:none;stroke:rgb(220,220,220);stroke-width:1" shape-rendering="crispEdges" />
    <polyline points="51.062,179.5477 979.49,179.5477" style="fill:none;stroke:rgb(220,220,220);stroke-width:1" shape-rendering="crispEdges" />
    <polyline points="51.062,110.2896 979.49,110.2896" style="fill:none;stroke:rgb(220,220,220);stroke-width:1" shape-rendering="crispEdges" />
    <polyline points="51.062,41.0314 979.49,41.0314" style="fill:none;stroke:rgb(220,220,220);stroke-width:1" shape-rendering="crispEdges" />
    <polyline points="51.062,248.8058 44.062,248.8058" style="fill:none;stroke:black;stroke-width:1" shape-rendering="crispEdges" />
    <polyline points="51.062,179.5477 44.062,179.5477" style="fill:none;stroke:black;stroke-width:1" shape-rendering="crispEdges" />
    <polyline points="51.062,110.2896 44.062,110.2896" style="fill:none;stroke:black;stroke-width:1" shape-rendering="crispEdges" />
    <polyline points="51.062,41.0314 44.062,41.0314" style="fill:none;stroke:black;stroke-width:1" shape-rendering="crispEdges" />
    <text dominant-baseline="hanging" text-anchor="middle" transform="translate(12,151.7333) rotate(-90)" font-family="Segoe UI" font-size="12" font-weight="400" fill="black">Magnitude (dB)</text>
    <text dominant-baseline="middle" text-anchor="end" transform="translate(40.062,502.3894)" font-family="Segoe UI" font-size="12" font-weight="400" fill="black">-100</text>
    <text dominant-baseline="middle" text-anchor="end" transform="translate(40.062,436.3583)" font-family="Segoe UI" font-size="12" font-weight="400" fill="black">0</text>
    <text dominant-baseline="middle" text-anchor="end" transform="translate(40.062,370.3272)" font-family="Segoe UI" font-size="12" font-weight="400" fill="black">100</text>
    <polyline points="51.062,502.3894 979.49,502.3894" style="fill:none;stroke:rgb(220,220,220);stroke-width:1" shape-rendering="crispEdges" />
    <polyline points="51.062,436.3583 979.49,436.3583" style="fill:none;stroke:rgb(220,220,220);stroke-width:1" shape-rendering="crispEdges" />
    <polyline points="51.062,370.3272 979.49,370.3272" style="fill:none;stroke:rgb(220,220,220);stroke-width:1" shape-rendering="crispEdges" />
    <polyline points="51.062,502.3894 44.062,502.3894" style="fill:none;stroke:black;stroke-width:1" shape-rendering="crispEdges" />
    <polyline points="51.062,436.3583 44.062,436.3583" style="fill:none;stroke:black;stroke-width:1" shape-rendering="crispEdges" />
    <polyline points="51.062,370.3272 44.062,370.3272" style="fill:none;stroke:black;stroke-width:1" shape-rendering="crispEdges" />
    <text dominant-baseline="hanging" text-anchor="middle" transform="translate(12,439.2667) rotate(-90)" font-family="Segoe UI" font-size="12" font-weight="400" fill="black">Phase (°)</text>
    <text dominant-baseline="hanging" text-anchor="middle" transform="translate(60.1642,567.894)" font-family="Segoe UI" font-size="12" font-weight="400" fill="black">20</text>
    <text dominant-baseline="hanging" text-anchor="middle" transform="translate(113.8588,567.894)" font-family="Segoe UI" font-size="12" font-weight="400" fill="black">30</text>
    <text dominant-baseline="hanging" text-anchor="middle" transform="translate(151.9558,567.894)" font-family="Segoe UI" font-size="12" font-weight="400" fill="black">40</text>
    <text dominant-baseline="hanging" text-anchor="middle" transform="translate(205.6504,567.894)" font-family="Segoe UI" font-size="12" font-weight="400" fill="black">60</text>
    <text dominant-baseline="hanging" text-anchor="middle" transform="translate(273.2976,567.894)" font-family="Segoe UI" font-size="12" font-weight="400" fill="black">100</text>
    <text dominant-baseline="hanging" text-anchor="middle" transform="translate(365.0891,567.894)" font-family="Segoe UI" font-size="12" font-weight="400" fill="black">200</text>
    <text dominant-baseline="hanging" text-anchor="middle" transform="translate(418.7837,567.894)" font-family="Segoe UI" font-size="12" font-weight="400" fill="black">300</text>
    <text dominant-baseline="hanging" text-anchor="middle" transform="translate(456.8807,567.894)" font-family="Segoe UI" font-size="12" font-weight="400" fill="black">400</text>
    <text dominant-baseline="hanging" text-anchor="middle" transform="translate(510.5753,567.894)" font-family="Segoe UI" font-size="12" font-weight="400" fill="black">600</text>
    <text dominant-baseline="hanging" text-anchor="middle" transform="translate(578.2225,567.894)" font-family="Segoe UI" font-size="12" font-weight="400" fill="black">1000</text>
    <text dominant-baseline="hanging" text-anchor="middle" transform="translate(670.014,567.894)" font-family="Segoe UI" font-size="12" font-weight="400" fill="black">2000</text>
    <text dominant-baseline="hanging" text-anchor="middle" transform="translate(723.7086,567.894)" font-family="Segoe UI" font-size="12" font-weight="400" fill="black">3000</text>
    <text dominant-baseline="hanging" text-anchor="middle" transform="translate(761.8055,567.894)" font-family="Segoe UI" font-size="12" font-weight="400" fill="black">4000</text>
    <text dominant-baseline="hanging" text-anchor="middle" transform="translate(815.5001,567.894)" font-family="Segoe UI" font-size="12" font-weight="400" fill="black">6000</text>
    <text dominant-baseline="hanging" text-anchor="middle" transform="translate(883.1473,567.894)" font-family="Segoe UI" font-size="12" font-weight="400" fill="black">10000</text>
    <text dominant-baseline="hanging" text-anchor="middle" transform="translate(974.9389,567.894)" font-family="Segoe UI" font-size="12" font-weight="400" fill="black">20000</text>
    <polyline points="60.1642,34.106 60.1642,556.894" style="fill:none;stroke:rgb(220,220,220);stroke-width:1" shape-rendering="crispEdges" />
    <polyline points="113.8588,34.106 113.8588,556.894" style="fill:none;stroke:rgb(220,220,220);stroke-width:1" shape-rendering="crispEdges" />
    <polyline points="151.9558,34.106 151.9558,556.894" style="fill:none;stroke:rgb(220,220,220);stroke-width:1" shape-rendering="crispEdges" />
    <polyline points="205.6504,34.106 205.6504,556.894" style="fill:none;stroke:rgb(220,220,220);stroke-width:1" shape-rendering="crispEdges" />
    <polyline points="273.2976,34.106 273.2976,556.894" style="fill:none;stroke:rgb(220,220,220);stroke-width:1" shape-rendering="crispEdges" />
    <polyline points="365.0891,34.106 365.0891,556.894" style="fill:none;stroke:rgb(220,220,220);stroke-width:1" shape-rendering="crispEdges" />
    <polyline points="418.7837,34.106 418.7837,556.894" style="fill:none;stroke:rgb(220,220,220);stroke-width:1" shape-rendering="crispEdges" />
    <polyline points="456.8807,34.106 456.8807,556.894" style="fill:none;stroke:rgb(220,220,220);stroke-width:1" shape-rendering="crispEdges" />
    <polyline points="510.5753,34.106 510.5753,556.894" style="fill:none;stroke:rgb(220,220,220);stroke-width:1" shape-rendering="crispEdges" />
    <polyline points="578.2225,34.106 578.2225,556.894" style="fill:none;stroke:rgb(220,220,220);stroke-width:1" shape-rendering="crispEdges" />
    <polyline points="670.014,34.106 670.014,556.894" style="fill:none;stroke:rgb(220,220,220);stroke-width:1" shape-rendering="crispEdges" />
    <polyline points="723.7086,34.106 723.7086,556.894" style="fill:none;stroke:rgb(220,220,220);stroke-width:1" shape-rendering="crispEdges" />
    <polyline points="761.8055,34.106 761.8055,556.894" style="fill:none;stroke:rgb(220,220,220);stroke-width:1" shape-rendering="crispEdges" />
    <polyline points="815.5001,34.106 815.5001,556.894" style="fill:none;stroke:rgb(220,220,220);stroke-width:1" shape-rendering="crispEdges" />
    <polyline points="883.1473,34.106 883.1473,556.894" style="fill:none;stroke:rgb(220,220,220);stroke-width:1" shape-rendering="crispEdges" />
    <polyline points="974.9389,34.106 974.9389,556.894" style="fill:none;stroke:rgb(220,220,220);stroke-width:1" shape-rendering="crispEdges" />
    <polyline points="60.1642,556.894 60.1642,563.894" style="fill:none;stroke:black;stroke-width:1" shape-rendering="crispEdges" />
    <polyline points="113.8588,556.894 113.8588,563.894" style="fill:none;stroke:black;stroke-width:1" shape-rendering="crispEdges" />
    <polyline points="151.9558,556.894 151.9558,563.894" style="fill:none;stroke:black;stroke-width:1" shape-rendering="crispEdges" />
    <polyline points="205.6504,556.894 205.6504,563.894" style="fill:none;stroke:black;stroke-width:1" shape-rendering="crispEdges" />
    <polyline points="273.2976,556.894 273.2976,563.894" style="fill:none;stroke:black;stroke-width:1" shape-rendering="crispEdges" />
    <polyline points="365.0891,556.894 365.0891,563.894" style="fill:none;stroke:black;stroke-width:1" shape-rendering="crispEdges" />
    <polyline points="418.7837,556.894 418.7837,563.894" style="fill:none;stroke:black;stroke-width:1" shape-rendering="crispEdges" />
    <polyline points="456.8807,556.894 456.8807,563.894" style="fill:none;stroke:black;stroke-width:1" shape-rendering="crispEdges" />
    <polyline points="510.5753,556.894 510.5753,563.894" style="fill:none;stroke:black;stroke-width:1" shape-rendering="crispEdges" />
    <polyline points="578.2225,556.894 578.2225,563.894" style="fill:none;stroke:black;stroke-width:1" shape-rendering="crispEdges" />
    <polyline points="670.014,556.894 670.014,563.894" style="fill:none;stroke:black;stroke-width:1" shape-rendering="crispEdges" />
    <polyline points="723.7086,556.894 723.7086,563.894" style="fill:none;stroke:black;stroke-width:1" shape-rendering="crispEdges" />
    <polyline points="761.8055,556.894 761.8055,563.894" style="fill:none;stroke:black;stroke-width:1" shape-rendering="crispEdges" />
    <polyline points="815.5001,556.894 815.5001,563.894" style="fill:none;stroke:black;stroke-width:1" shape-rendering="crispEdges" />
    <polyline points="883.1473,556.894 883.1473,563.894" style="fill:none;stroke:black;stroke-width:1" shape-rendering="crispEdges" />
    <polyline points="974.9389,556.894 974.9389,563.894" style="fill:none;stroke:black;stroke-width:1" shape-rendering="crispEdges" />
    <text dominant-baseline="baseline" text-anchor="middle" transform="translate(515.276,588)" font-family="Segoe UI" font-size="12" font-weight="400" fill="black">Frequency (Hz)</text>
  </g>
  <defs>
    <clipPath id="clipPath2">
      <rect x="51.062" y="34.106" width="928.428" height="235.2546" />
    </clipPath>
  </defs>
  <g clip-path="url(#clipPath2)">
    <polyline points="60.1642,262.4348 64.7154,261.1943 69.2665,259.9539 73.8176,258.7134 78.3687,257.473 82.9198,256.2325 87.4709,254.992 92.0221,253.7516 96.5732,252.5111 101.1243,251.2706 105.6754,250.0302 110.2265,248.7897 114.7776,247.5492 119.3288,246.3087 123.8799,245.0683 128.431,243.8278 132.9821,242.5873 137.5332,241.3468 142.0844,240.1063 146.6355,238.8658 151.1866,237.6253 155.7377,236.3848 160.2888,235.1443 164.8399,233.9038 169.3911,232.6633 173.9422,231.4228 178.4933,230.1823 183.0444,228.9417 187.5955,227.7012 192.1466,226.4607 196.6978,225.2201 201.2489,223.9796 205.8,222.739 210.3511,221.4984 214.9022,220.2579 219.4534,219.0173 224.0045,217.7767 228.5556,216.5361 233.1067,215.2954 237.6578,214.0548 242.2089,212.8142 246.7601,211.5735 251.3112,210.3328 255.8623,209.0921 260.4134,207.8514 264.9645,206.6107 269.5156,205.3699 274.0668,204.1292 278.6179,202.8884 283.169,201.6475 287.7201,200.4067 296.8224,197.9249 301.3735,196.684 305.9246,195.443 310.4757,194.202 315.0268,192.9609 319.5779,191.7198 324.1291,190.4787 328.6802,189.2375 333.2313,187.9962 337.7824,186.7549 342.3335,185.5136 346.8846,184.2721 351.4358,183.0306 355.9869,181.789 360.538,180.5474 365.0891,179.3056 369.6402,178.0638 374.1914,176.8219 378.7425,175.5798 383.2936,174.3377 387.8447,173.0954 392.3958,171.853 396.9469,170.6104 401.4981,169.3677 406.0492,168.1248 410.6003,166.8818 415.1514,165.6386 419.7025,164.3951 424.2536,163.1515 428.8048,161.9076 433.3559,160.6635 437.907,159.4192 442.4581,158.1745 447.0092,156.9296 451.5604,155.6843 456.1115,154.4387 460.6626,153.1927 465.2137,151.9463 469.7648,150.6995 474.3159,149.4522 478.8671,148.2045 483.4182,146.9562 487.9693,145.7073 492.5204,144.4579 497.0715,143.2078 501.6226,141.957 506.1738,140.7055 510.7249,139.4531 515.276,138.1999 519.8271,136.9458 524.3782,135.6907 528.9294,134.4345 533.4805,133.1772 538.0316,131.9187 542.5827,130.6588 547.1338,129.3975 551.6849,128.1348 556.2361,126.8704 560.7872,125.6042 565.3383,124.3361 569.8894,123.066 574.4405,121.7938 578.9916,120.5191 583.5428,119.242 588.0939,117.9621 592.645,116.6793 597.1961,115.3933 601.7472,114.1039 606.2984,112.8108 610.8495,111.5137 615.4006,110.2124 619.9517,108.9064 624.5028,107.5953 629.0539,106.2789 633.6051,104.9565 638.1562,103.6278 642.7073,102.2921 647.2584,100.9489 651.8095,99.5976 656.3606,98.2374 660.9118,96.8675 665.4629,95.4871 670.014,94.0951 674.5651,92.6906 679.1162,91.2724 683.6674,89.8391 688.2185,88.3893 692.7696,86.9213 697.3207,85.4335 701.8718,83.9237 706.4229,82.3899 710.9741,80.8295 715.5252,79.2398 720.0763,77.6181 724.6274,75.9612 729.1785,74.266 733.7296,72.5295 738.2808,70.7491 742.8319,68.9235 751.9341,65.145 756.4852,63.2104 761.0364,61.2756 765.5875,59.3856 770.1386,57.611 774.6897,56.0483 779.2408,54.8032 783.7919,53.9532 788.3431,53.5091 792.8942,53.4094 797.4453,53.5522 801.9964,53.836 806.5475,54.1827 811.0986,54.5408 815.6498,54.8803 820.2009,55.1854 824.752,55.4494 829.3031,55.6705 833.8542,55.8499 838.4054,55.99 842.9565,56.094 847.5076,56.1653 852.0587,56.2073 856.6098,56.2231 861.1609,56.2158 865.7121,56.188 870.2632,56.1423 874.8143,56.0809 879.3654,56.0059 883.9165,55.9192 888.4676,55.8224 893.0188,55.7172 897.5699,55.605 902.121,55.4869 906.6721,55.3641 911.2232,55.2377 915.7744,55.1087 920.3255,54.9778 924.8766,54.8458 929.4277,54.7135 933.9788,54.5815 938.5299,54.4502 943.0811,54.3202 947.6322,54.192 952.1833,54.0659 956.7344,53.9423 961.2855,53.8214 965.8366,53.7035 970.3878,53.5887" style="fill:none;stroke:rgb(31,119,180);stroke-width:2;stroke-linejoin:bevel" />
  </g>
  <defs>
    <clipPath id="clipPath3">
      <rect x="0" y="0" width="1000" height="600" />
    </clipPath>
  </defs>
  <g clip-path="url(#clipPath3)" />
  <defs>
    <clipPath id="clipPath4">
      <rect x="51.062" y="321.6394" width="928.428" height="235.2546" />
    </clipPath>
  </defs>
  <g clip-path="url(#clipPath4)">
    <polyline points="60.1642,495.8955 64.7154,495.8994 69.2665,495.9033 73.8176,495.9074 78.3687,495.9116 82.9198,495.916 87.4709,495.9205 92.0221,495.9252 96.5732,495.9301 101.1243,495.9351 105.6754,495.9403 110.2265,495.9457 114.7776,495.9513 119.3288,495.9571 123.8799,495.963 128.431,495.9692 132.9821,495.9756 137.5332,495.9822 142.0844,495.9891 146.6355,495.9962 151.1866,496.0035 155.7377,496.0111 160.2888,496.019 164.8399,496.0271 169.3911,496.0355 173.9422,496.0442 178.4933,496.0533 183.0444,496.0626 187.5955,496.0723 192.1466,496.0823 196.6978,496.0926 201.2489,496.1033 205.8,496.1144 210.3511,496.1259 214.9022,496.1378 219.4534,496.1501 224.0045,496.1628 228.5556,496.1759 233.1067,496.1896 237.6578,496.2037 242.2089,496.2183 246.7601,496.2334 251.3112,496.249 255.8623,496.2652 260.4134,496.282 264.9645,496.2993 269.5156,496.3172 274.0668,496.3358 278.6179,496.355 283.169,496.3749 287.7201,496.3955 296.8224,496.4389 301.3735,496.4617 305.9246,496.4854 310.4757,496.5098 315.0268,496.5352 319.5779,496.5614 324.1291,496.5885 328.6802,496.6166 333.2313,496.6456 337.7824,496.6757 342.3335,496.7068 346.8846,496.7391 351.4358,496.7724 355.9869,496.807 360.538,496.8427 365.0891,496.8797 369.6402,496.918 374.1914,496.9577 378.7425,496.9987 383.2936,497.0412 387.8447,497.0852 392.3958,497.1308 396.9469,497.1779 401.4981,497.2267 406.0492,497.2773 410.6003,497.3296 415.1514,497.3838 419.7025,497.4399 424.2536,497.4979 428.8048,497.5581 433.3559,497.6204 437.907,497.6848 442.4581,497.7516 447.0092,497.8208 451.5604,497.8924 456.1115,497.9666 460.6626,498.0434 465.2137,498.123 469.7648,498.2054 474.3159,498.2909 478.8671,498.3793 483.4182,498.471 487.9693,498.566 492.5204,498.6645 497.0715,498.7665 501.6226,498.8722 506.1738,498.9818 510.7249,499.0954 515.276,499.2133 519.8271,499.3354 524.3782,499.4621 528.9294,499.5936 533.4805,499.7299 538.0316,499.8714 542.5827,500.0182 547.1338,500.1706 551.6849,500.3288 556.2361,500.4931 560.7872,500.6638 565.3383,500.8412 569.8894,501.0255 574.4405,501.2171 578.9916,501.4164 583.5428,501.6238 588.0939,501.8397 592.645,502.0644 597.1961,502.2986 601.7472,502.5426 606.2984,502.7972 610.8495,503.0628 615.4006,503.3401 619.9517,503.63 624.5028,503.9331 629.0539,504.2503 633.6051,504.5826 638.1562,504.9312 642.7073,505.297 647.2584,505.6816 651.8095,506.0863 656.3606,506.5129 660.9118,506.9631 665.4629,507.4393 670.014,507.9437 674.5651,508.4793 679.1162,509.0493 683.6674,509.6573 688.2185,510.3079 692.7696,511.0062 697.3207,511.7582 701.8718,512.5713 706.4229,513.4542 710.9741,514.4174 715.5252,515.474 720.0763,516.6398 724.6274,517.9344 729.1785,519.3826 733.7296,521.0155 738.2808,522.8724 742.8319,525.0034 751.9341,530.359 756.4852,533.7614 761.0364,537.7925 765.5875,542.5669 770.1386,548.1678 774.6897,554.5876 779.2408,323.9458 783.7919,331.3143 788.3431,338.5282 792.8942,345.1938 797.4453,351.0895 801.9964,356.1692 806.5475,360.4974 811.0986,364.1843 815.6498,367.3454 820.2009,370.0831 824.752,372.4821 829.3031,374.6104 833.8542,376.5212 838.4054,378.2565 842.9565,379.8491 847.5076,381.325 852.0587,382.7049 856.6098,384.0052 861.1609,385.2392 865.7121,386.4176 870.2632,387.5491 874.8143,388.6408 879.3654,389.6986 883.9165,390.7273 888.4676,391.7308 893.0188,392.7124 897.5699,393.6748 902.121,394.62 906.6721,395.55 911.2232,396.4661 915.7744,397.3694 920.3255,398.2609 924.8766,399.1411 929.4277,400.0107 933.9788,400.8698 938.5299,401.7188 943.0811,402.5576 947.6322,403.3864 952.1833,404.205 956.7344,405.0133 961.2855,405.8111 965.8366,406.5982 970.3878,407.3743" style="fill:none;stroke:rgb(31,119,180);stroke-width:2;stroke-linejoin:bevel" />
  </g>
  <defs>
    <clipPath id="clipPath5">
      <rect x="0" y="0" width="1000" height="600" />
    </clipPath>
  </defs>
  <g clip-path="url(#clipPath5)" />
  <defs>
    <clipPath id="clipPath6">
      <rect x="51.062" y="34.106" width="928.428" height="235.2546" />
    </clipPath>
  </defs>
  <g clip-path="url(#clipPath6)">
    <polyline points="60.1642,41.0318 64.7154,41.0318 69.2665,41.0319 73.8176,41.0319 78.3687,41.0319 82.9198,41.032 87.4709,41.032 92.0221,41.032 96.5732,41.0321 101.1243,41.0321 105.6754,41.0322 110.2265,41.0322 114.7776,41.0323 119.3288,41.0324 123.8799,41.0324 128.431,41.0325 132.9821,41.0326 137.5332,41.0326 142.0844,41.0327 146.6355,41.0328 151.1866,41.0329 155.7377,41.033 160.2888,41.0331 164.8399,41.0333 169.3911,41.0334 173.9422,41.0335 178.4933,41.0337 183.0444,41.0338 187.5955,41.034 192.1466,41.0342 196.6978,41.0344 201.2489,41.0346 205.8,41.0348 210.3511,41.0351 214.9022,41.0353 219.4534,41.0356 224.0045,41.0359 228.5556,41.0362 233.1067,41.0366 237.6578,41.0369 242.2089,41.0373 246.7601,41.0377 251.3112,41.0382 255.8623,41.0387 260.4134,41.0392 264.9645,41.0397 269.5156,41.0403 274.0668,41.041 278.6179,41.0417 283.169,41.0424 287.7201,41.0432 296.8224,41.0449 301.3735,41.0459 305.9246,41.0469 310.4757,41.048 315.0268,41.0492 319.5779,41.0505 324.1291,41.0519 328.6802,41.0533 333.2313,41.0549 337.7824,41.0566 342.3335,41.0584 346.8846,41.0604 351.4358,41.0625 355.9869,41.0647 360.538,41.0671 365.0891,41.0697 369.6402,41.0725 374.1914,41.0755 378.7425,41.0787 383.2936,41.0822 387.8447,41.0859 392.3958,41.0899 396.9469,41.0942 401.4981,41.0988 406.0492,41.1038 410.6003,41.1091 415.1514,41.1149 419.7025,41.1211 424.2536,41.1278 428.8048,41.135 433.3559,41.1428 437.907,41.1512 442.4581,41.1602 447.0092,41.17 451.5604,41.1805 456.1115,41.192 460.6626,41.2043 465.2137,41.2176 469.7648,41.2321 474.3159,41.2477 478.8671,41.2647 483.4182,41.283 487.9693,41.3029 492.5204,41.3246 497.0715,41.3481 501.6226,41.3736 506.1738,41.4013 510.7249,41.4315 515.276,41.4644 519.8271,41.5002 524.3782,41.5393 528.9294,41.5819 533.4805,41.6283 538.0316,41.679 542.5827,41.7344 547.1338,41.795 551.6849,41.8611 556.2361,41.9335 560.7872,42.0126 565.3383,42.0991 569.8894,42.1937 574.4405,42.2971 578.9916,42.4102 583.5428,42.5338 588.0939,42.6688 592.645,42.8162 597.1961,42.9769 601.7472,43.1521 606.2984,43.3427 610.8495,43.5498 615.4006,43.7745 619.9517,44.018 624.5028,44.2812 629.0539,44.5652 633.6051,44.8709 638.1562,45.1991 642.7073,45.5507 647.2584,45.9262 651.8095,46.3262 656.3606,46.7511 660.9118,47.201 665.4629,47.6761 670.014,48.1763 674.5651,48.7014 679.1162,49.2511 683.6674,49.825 688.2185,50.4224 692.7696,51.0428 697.3207,51.6856 701.8718,52.35 706.4229,53.0354 710.9741,53.741 715.5252,54.4661 720.0763,55.2102 724.6274,55.9727 729.1785,56.7531 733.7296,57.5509 738.2808,58.3659 742.8319,59.1979 751.9341,60.9124 756.4852,61.7952 761.0364,62.6953 765.5875,63.6133 770.1386,64.5498 774.6897,65.5057 779.2408,66.482 783.7919,67.48 788.3431,68.5012 792.8942,69.5477 797.4453,70.6215 801.9964,71.7256 806.5475,72.863 811.0986,74.0376 815.6498,75.2543 820.2009,76.5185 824.752,77.8374 829.3031,79.2197 833.8542,80.6761 838.4054,82.2206 842.9565,83.8715 847.5076,85.653 852.0587,87.5988 856.6098,89.757 861.1609,92.1999 865.7121,95.0441 870.2632,98.495 874.8143,102.9694 879.3654,109.5464 883.9165,123.254 888.4676,123.4263 893.0188,110.6889 897.5699,104.957 902.121,101.3095 906.6721,98.6793 911.2232,96.6526 915.7744,95.0253 920.3255,93.6814 924.8766,92.5486 929.4277,91.5789 933.9788,90.7387 938.5299,90.0036 943.0811,89.3554 947.6322,88.78 952.1833,88.2664 956.7344,87.8057 961.2855,87.3909 965.8366,87.016 970.3878,86.6761" style="fill:none;stroke:rgb(255,127,14);stroke-width:2;stroke-linejoin:bevel" />
  </g>
  <defs>
    <clipPath id="clipPath7">
      <rect x="0" y="0" width="1000" height="600" />
    </clipPath>
  </defs>
  <g clip-path="url(#clipPath7)" />
  <defs>
    <clipPath id="clipPath8">
      <rect x="51.062" y="321.6394" width="928.428" height="235.2546" />
    </clipPath>
  </defs>
  <g clip-path="url(#clipPath8)">
    <polyline points="60.1642,437.012 64.7154,437.0349 69.2665,437.0585 73.8176,437.083 78.3687,437.1083 82.9198,437.1346 87.4709,437.1617 92.0221,437.1898 96.5732,437.2189 101.1243,437.249 105.6754,437.2801 110.2265,437.3124 114.7776,437.3457 119.3288,437.3802 123.8799,437.416 128.431,437.453 132.9821,437.4912 137.5332,437.5309 142.0844,437.5719 146.6355,437.6143 151.1866,437.6582 155.7377,437.7037 160.2888,437.7507 164.8399,437.7994 169.3911,437.8498 173.9422,437.902 178.4933,437.956 183.0444,438.0119 187.5955,438.0697 192.1466,438.1296 196.6978,438.1915 201.2489,438.2556 205.8,438.322 210.3511,438.3907 214.9022,438.4618 219.4534,438.5354 224.0045,438.6115 228.5556,438.6904 233.1067,438.772 237.6578,438.8564 242.2089,438.9438 246.7601,439.0343 251.3112,439.1279 255.8623,439.2248 260.4134,439.3252 264.9645,439.429 269.5156,439.5365 274.0668,439.6477 278.6179,439.7629 283.169,439.8821 287.7201,440.0054 296.8224,440.2653 301.3735,440.4022 305.9246,440.5438 310.4757,440.6904 315.0268,440.8422 319.5779,440.9993 324.1291,441.162 328.6802,441.3303 333.2313,441.5047 337.7824,441.6851 342.3335,441.8719 346.8846,442.0653 351.4358,442.2656 355.9869,442.4729 360.538,442.6875 365.0891,442.9098 369.6402,443.1399 374.1914,443.3782 378.7425,443.6249 383.2936,443.8804 387.8447,444.1449 392.3958,444.4189 396.9469,444.7026 401.4981,444.9965 406.0492,445.3008 410.6003,445.616 415.1514,445.9426 419.7025,446.2808 424.2536,446.6311 428.8048,446.9941 433.3559,447.3701 437.907,447.7597 442.4581,448.1634 447.0092,448.5817 451.5604,449.0152 456.1115,449.4644 460.6626,449.93 465.2137,450.4126 469.7648,450.9128 474.3159,451.4313 478.8671,451.9689 483.4182,452.5262 487.9693,453.1041 492.5204,453.7032 497.0715,454.3246 501.6226,454.9689 506.1738,455.637 510.7249,456.3299 515.276,457.0486 519.8271,457.7939 524.3782,458.5668 528.9294,459.3683 533.4805,460.1994 538.0316,461.0612 542.5827,461.9547 547.1338,462.8808 551.6849,463.8405 556.2361,464.8348 560.7872,465.8646 565.3383,466.9308 569.8894,468.034 574.4405,469.175 578.9916,470.3543 583.5428,471.5722 588.0939,472.829 592.645,474.1246 597.1961,475.4587 601.7472,476.8309 606.2984,478.2401 610.8495,479.6854 615.4006,481.1651 619.9517,482.6773 624.5028,484.2198 629.0539,485.7898 633.6051,487.3844 638.1562,489.0002 642.7073,490.6334 647.2584,492.28 651.8095,493.936 656.3606,495.5968 660.9118,497.2582 665.4629,498.9157 670.014,500.5648 674.5651,502.2015 679.1162,503.8215 683.6674,505.4212 688.2185,506.9972 692.7696,508.5462 697.3207,510.0655 701.8718,511.5528 706.4229,513.0061 710.9741,514.4237 715.5252,515.8044 720.0763,517.1472 724.6274,518.4516 729.1785,519.7172 733.7296,520.944 738.2808,522.1321 742.8319,523.2818 751.9341,525.4681 756.4852,526.5061 761.0364,527.5085 765.5875,528.476 770.1386,529.4097 774.6897,530.3105 779.2408,531.1794 783.7919,532.0174 788.3431,532.8256 792.8942,533.605 797.4453,534.3565 801.9964,535.0811 806.5475,535.7798 811.0986,536.4535 815.6498,537.1032 820.2009,537.7297 824.752,538.3338 829.3031,538.9164 833.8542,539.4784 838.4054,540.0204 842.9565,540.5432 847.5076,541.0475 852.0587,541.5341 856.6098,542.0035 861.1609,542.4564 865.7121,542.8934 870.2632,543.3151 874.8143,543.7221 879.3654,544.1148 883.9165,544.4939 888.4676,426.0038 893.0188,426.357 897.5699,426.6979 902.121,427.0271 906.6721,427.3448 911.2232,427.6516 915.7744,427.9478 920.3255,428.2339 924.8766,428.51 929.4277,428.7767 933.9788,429.0342 938.5299,429.2829 943.0811,429.5231 947.6322,429.755 952.1833,429.979 956.7344,430.1954 961.2855,430.4043 965.8366,430.6062 970.3878,430.8011" style="fill:none;stroke:rgb(255,127,14);stroke-width:2;stroke-linejoin:bevel" />
  </g>
  <defs>
    <clipPath id="clipPath9">
      <rect x="0" y="0" width="1000" height="600" />
    </clipPath>
  </defs>
  <g clip-path="url(#clipPath9)">
    <text dominant-baseline="hanging" text-anchor="middle" transform="translate(515.276,8)" font-family="Segoe UI" font-size="18" font-weight="700" fill="black">Overnight Sensation Crossover Frequency Response</text>
    <rect x="51.062" y="34.106" width="928.428" height="522.788" style="fill:none;stroke:black;stroke-width:1" shape-rendering="crispEdges" />
  </g>
</svg>